<mxfile host="app.diagrams.net" agent="Mozilla/5.0 (Windows NT 10.0; Win64; x64) AppleWebKit/537.36 (KHTML, like Gecko) Chrome/134.0.0.0 Safari/537.36" version="24.7.17">
  <diagram name="pipeline流程" id="_b3mfQIAoILUMdI7C296">
    <mxGraphModel dx="784" dy="404" grid="1" gridSize="10" guides="1" tooltips="1" connect="1" arrows="1" fold="1" page="1" pageScale="1" pageWidth="1169" pageHeight="827" math="0" shadow="0">
      <root>
        <mxCell id="0" />
        <mxCell id="1" parent="0" />
        <mxCell id="8qDGK20phoXkKiL5pCjt-18" style="edgeStyle=orthogonalEdgeStyle;rounded=0;orthogonalLoop=1;jettySize=auto;html=1;entryX=0.5;entryY=0;entryDx=0;entryDy=0;" edge="1" parent="1" source="8qDGK20phoXkKiL5pCjt-5" target="8qDGK20phoXkKiL5pCjt-9">
          <mxGeometry relative="1" as="geometry" />
        </mxCell>
        <mxCell id="8qDGK20phoXkKiL5pCjt-5" value="" style="rounded=0;whiteSpace=wrap;html=1;fillColor=#60a917;fontColor=#ffffff;strokeColor=#2D7600;" vertex="1" parent="1">
          <mxGeometry x="370" y="360" width="140" height="110" as="geometry" />
        </mxCell>
        <mxCell id="8qDGK20phoXkKiL5pCjt-1" value="&lt;font face=&quot;Lucida Console&quot;&gt;run_pipeline.py&lt;/font&gt;" style="rounded=1;whiteSpace=wrap;html=1;fillColor=#1ba1e2;fontColor=#ffffff;strokeColor=#006EAF;" vertex="1" parent="1">
          <mxGeometry x="380" y="390" width="120" height="60" as="geometry" />
        </mxCell>
        <mxCell id="8qDGK20phoXkKiL5pCjt-4" value="&lt;font face=&quot;Lucida Console&quot;&gt;./tools&lt;/font&gt;" style="text;html=1;align=center;verticalAlign=middle;whiteSpace=wrap;rounded=0;fontColor=#FFFFFF;" vertex="1" parent="1">
          <mxGeometry x="370" y="360" width="60" height="30" as="geometry" />
        </mxCell>
        <mxCell id="8qDGK20phoXkKiL5pCjt-9" value="" style="rounded=0;whiteSpace=wrap;html=1;fillColor=#60a917;fontColor=#ffffff;strokeColor=#2D7600;" vertex="1" parent="1">
          <mxGeometry x="370" y="550" width="140" height="110" as="geometry" />
        </mxCell>
        <mxCell id="8qDGK20phoXkKiL5pCjt-8" value="&lt;font face=&quot;Lucida Console&quot;&gt;./deploy&lt;/font&gt;" style="text;html=1;align=center;verticalAlign=middle;whiteSpace=wrap;rounded=0;fontColor=#FFFFFF;" vertex="1" parent="1">
          <mxGeometry x="370" y="550" width="60" height="30" as="geometry" />
        </mxCell>
        <mxCell id="8qDGK20phoXkKiL5pCjt-10" value="&lt;font face=&quot;Lucida Console&quot;&gt;&lt;span style=&quot;font-size: 12px;&quot;&gt;compile.py&lt;/span&gt;&lt;/font&gt;" style="rounded=1;whiteSpace=wrap;html=1;fillColor=#1ba1e2;fontColor=#ffffff;strokeColor=#006EAF;" vertex="1" parent="1">
          <mxGeometry x="380" y="575" width="120" height="60" as="geometry" />
        </mxCell>
        <mxCell id="8qDGK20phoXkKiL5pCjt-11" value="&lt;font face=&quot;Lucida Console&quot; color=&quot;#000000&quot;&gt;Step 1:&amp;nbsp;&lt;span style=&quot;font-size: 12px;&quot;&gt;Compile kernels&lt;/span&gt;&lt;/font&gt;" style="text;html=1;align=center;verticalAlign=middle;whiteSpace=wrap;rounded=0;fontColor=#FFFFFF;" vertex="1" parent="1">
          <mxGeometry x="255" y="510" width="175" height="30" as="geometry" />
        </mxCell>
        <mxCell id="8qDGK20phoXkKiL5pCjt-12" value="&lt;font face=&quot;Lucida Console&quot; color=&quot;#000000&quot;&gt;Step 2: build T-MAC C++ CMakeFiles&lt;/font&gt;" style="text;html=1;align=center;verticalAlign=middle;whiteSpace=wrap;rounded=0;fontColor=#FFFFFF;" vertex="1" parent="1">
          <mxGeometry x="500" y="480" width="260" height="30" as="geometry" />
        </mxCell>
        <mxCell id="8qDGK20phoXkKiL5pCjt-13" value="&lt;font face=&quot;Lucida Console&quot; color=&quot;#000000&quot;&gt;Step 3: Install T-MAC C++&amp;nbsp;&lt;/font&gt;" style="text;html=1;align=center;verticalAlign=middle;whiteSpace=wrap;rounded=0;fontColor=#FFFFFF;" vertex="1" parent="1">
          <mxGeometry x="790" y="480" width="205" height="30" as="geometry" />
        </mxCell>
        <mxCell id="8qDGK20phoXkKiL5pCjt-14" value="&lt;font face=&quot;Lucida Console&quot; color=&quot;#000000&quot;&gt;Step 4: Convert HF to GGUF&lt;/font&gt;" style="text;html=1;align=center;verticalAlign=middle;whiteSpace=wrap;rounded=0;fontColor=#FFFFFF;" vertex="1" parent="1">
          <mxGeometry x="55" y="675" width="205" height="30" as="geometry" />
        </mxCell>
        <mxCell id="8qDGK20phoXkKiL5pCjt-15" value="&lt;font face=&quot;Lucida Console&quot; color=&quot;#000000&quot;&gt;Step 5: Build llama.cpp CmakeFiles&lt;/font&gt;" style="text;html=1;align=center;verticalAlign=middle;whiteSpace=wrap;rounded=0;fontColor=#FFFFFF;" vertex="1" parent="1">
          <mxGeometry x="55" y="725" width="265" height="30" as="geometry" />
        </mxCell>
        <mxCell id="8qDGK20phoXkKiL5pCjt-16" value="&lt;font face=&quot;Lucida Console&quot; color=&quot;#000000&quot;&gt;Step 6: Build llama.cpp&lt;/font&gt;" style="text;html=1;align=center;verticalAlign=middle;whiteSpace=wrap;rounded=0;fontColor=#FFFFFF;" vertex="1" parent="1">
          <mxGeometry x="55" y="775" width="185" height="30" as="geometry" />
        </mxCell>
        <mxCell id="8qDGK20phoXkKiL5pCjt-17" value="&lt;font face=&quot;Lucida Console&quot; color=&quot;#000000&quot;&gt;Step 7: Run interface&lt;/font&gt;" style="text;html=1;align=center;verticalAlign=middle;whiteSpace=wrap;rounded=0;fontColor=#FFFFFF;" vertex="1" parent="1">
          <mxGeometry x="50" y="825" width="185" height="30" as="geometry" />
        </mxCell>
        <mxCell id="8qDGK20phoXkKiL5pCjt-19" value="" style="rounded=0;whiteSpace=wrap;html=1;fillColor=#60a917;fontColor=#ffffff;strokeColor=#2D7600;" vertex="1" parent="1">
          <mxGeometry x="550" y="550" width="140" height="110" as="geometry" />
        </mxCell>
        <mxCell id="8qDGK20phoXkKiL5pCjt-20" value="&lt;font face=&quot;Lucida Console&quot;&gt;./&lt;/font&gt;" style="text;html=1;align=center;verticalAlign=middle;whiteSpace=wrap;rounded=0;fontColor=#FFFFFF;" vertex="1" parent="1">
          <mxGeometry x="550" y="550" width="60" height="30" as="geometry" />
        </mxCell>
        <mxCell id="8qDGK20phoXkKiL5pCjt-21" value="&lt;font face=&quot;Lucida Console&quot;&gt;&lt;span style=&quot;font-size: 12px;&quot;&gt;CMakeLists.txt&lt;/span&gt;&lt;/font&gt;" style="rounded=1;whiteSpace=wrap;html=1;fillColor=#1ba1e2;fontColor=#ffffff;strokeColor=#006EAF;" vertex="1" parent="1">
          <mxGeometry x="560" y="575" width="120" height="60" as="geometry" />
        </mxCell>
        <mxCell id="8qDGK20phoXkKiL5pCjt-22" value="" style="rounded=0;whiteSpace=wrap;html=1;fillColor=#60a917;fontColor=#ffffff;strokeColor=#2D7600;" vertex="1" parent="1">
          <mxGeometry x="490" y="697.5" width="140" height="85" as="geometry" />
        </mxCell>
        <mxCell id="8qDGK20phoXkKiL5pCjt-23" value="&lt;font face=&quot;Lucida Console&quot;&gt;./&lt;/font&gt;&lt;span style=&quot;font-family: &amp;quot;Lucida Console&amp;quot;;&quot;&gt;deploy/&lt;/span&gt;&lt;font face=&quot;Lucida Console&quot;&gt;tuned&lt;/font&gt;" style="text;html=1;align=center;verticalAlign=middle;whiteSpace=wrap;rounded=0;fontColor=#FFFFFF;" vertex="1" parent="1">
          <mxGeometry x="510" y="695" width="60" height="30" as="geometry" />
        </mxCell>
        <mxCell id="8qDGK20phoXkKiL5pCjt-24" value="&lt;font face=&quot;Lucida Console&quot;&gt;&lt;span style=&quot;font-size: 12px;&quot;&gt;kernels&lt;/span&gt;&lt;/font&gt;" style="rounded=1;whiteSpace=wrap;html=1;fillColor=#1ba1e2;fontColor=#ffffff;strokeColor=#006EAF;" vertex="1" parent="1">
          <mxGeometry x="525" y="725" width="70" height="20" as="geometry" />
        </mxCell>
        <mxCell id="8qDGK20phoXkKiL5pCjt-25" value="&lt;font face=&quot;Lucida Console&quot;&gt;kcfg&lt;/font&gt;" style="rounded=1;whiteSpace=wrap;html=1;fillColor=#1ba1e2;fontColor=#ffffff;strokeColor=#006EAF;" vertex="1" parent="1">
          <mxGeometry x="525" y="755" width="70" height="20" as="geometry" />
        </mxCell>
        <mxCell id="8qDGK20phoXkKiL5pCjt-26" value="" style="curved=1;endArrow=classic;html=1;rounded=0;exitX=0.523;exitY=1.001;exitDx=0;exitDy=0;exitPerimeter=0;entryX=0.01;entryY=0.555;entryDx=0;entryDy=0;entryPerimeter=0;" edge="1" parent="1" source="8qDGK20phoXkKiL5pCjt-9" target="8qDGK20phoXkKiL5pCjt-22">
          <mxGeometry width="50" height="50" relative="1" as="geometry">
            <mxPoint x="490" y="680" as="sourcePoint" />
            <mxPoint x="540" y="630" as="targetPoint" />
            <Array as="points">
              <mxPoint x="410" y="700" />
              <mxPoint x="440" y="730" />
            </Array>
          </mxGeometry>
        </mxCell>
        <mxCell id="8qDGK20phoXkKiL5pCjt-31" value="&lt;font face=&quot;Lucida Console&quot; color=&quot;#000000&quot;&gt;generate&lt;/font&gt;" style="text;html=1;align=center;verticalAlign=middle;whiteSpace=wrap;rounded=0;fontColor=#FFFFFF;" vertex="1" parent="1">
          <mxGeometry x="350" y="695" width="80" height="30" as="geometry" />
        </mxCell>
        <mxCell id="8qDGK20phoXkKiL5pCjt-32" value="" style="rounded=0;whiteSpace=wrap;html=1;fillColor=#60a917;fontColor=#ffffff;strokeColor=#2D7600;" vertex="1" parent="1">
          <mxGeometry x="740" y="550" width="140" height="110" as="geometry" />
        </mxCell>
        <mxCell id="8qDGK20phoXkKiL5pCjt-33" value="&lt;font face=&quot;Lucida Console&quot;&gt;./&lt;span style=&quot;font-size: 12px;&quot;&gt;build&lt;/span&gt;&lt;/font&gt;" style="text;html=1;align=center;verticalAlign=middle;whiteSpace=wrap;rounded=0;fontColor=#FFFFFF;" vertex="1" parent="1">
          <mxGeometry x="740" y="550" width="60" height="30" as="geometry" />
        </mxCell>
        <mxCell id="8qDGK20phoXkKiL5pCjt-34" value="&lt;font face=&quot;Lucida Console&quot;&gt;&lt;span style=&quot;font-size: 12px;&quot;&gt;makefile&lt;/span&gt;&lt;/font&gt;" style="rounded=1;whiteSpace=wrap;html=1;fillColor=#1ba1e2;fontColor=#ffffff;strokeColor=#006EAF;" vertex="1" parent="1">
          <mxGeometry x="750" y="575" width="120" height="60" as="geometry" />
        </mxCell>
        <mxCell id="8qDGK20phoXkKiL5pCjt-35" value="" style="endArrow=classic;html=1;rounded=0;exitX=0.75;exitY=1;exitDx=0;exitDy=0;entryX=0.005;entryY=0.472;entryDx=0;entryDy=0;entryPerimeter=0;" edge="1" parent="1" source="8qDGK20phoXkKiL5pCjt-5" target="8qDGK20phoXkKiL5pCjt-19">
          <mxGeometry width="50" height="50" relative="1" as="geometry">
            <mxPoint x="490" y="630" as="sourcePoint" />
            <mxPoint x="540" y="580" as="targetPoint" />
          </mxGeometry>
        </mxCell>
        <mxCell id="8qDGK20phoXkKiL5pCjt-36" value="" style="endArrow=classic;html=1;rounded=0;exitX=1;exitY=0.5;exitDx=0;exitDy=0;entryX=0;entryY=0.5;entryDx=0;entryDy=0;" edge="1" parent="1" source="8qDGK20phoXkKiL5pCjt-22" target="8qDGK20phoXkKiL5pCjt-37">
          <mxGeometry width="50" height="50" relative="1" as="geometry">
            <mxPoint x="694.3" y="710" as="sourcePoint" />
            <mxPoint x="720" y="740" as="targetPoint" />
          </mxGeometry>
        </mxCell>
        <mxCell id="8qDGK20phoXkKiL5pCjt-37" value="" style="rounded=0;whiteSpace=wrap;html=1;fillColor=#60a917;fontColor=#ffffff;strokeColor=#2D7600;" vertex="1" parent="1">
          <mxGeometry x="740" y="685" width="140" height="110" as="geometry" />
        </mxCell>
        <mxCell id="8qDGK20phoXkKiL5pCjt-38" value="&lt;font face=&quot;Lucida Console&quot;&gt;./install&lt;/font&gt;" style="text;html=1;align=center;verticalAlign=middle;whiteSpace=wrap;rounded=0;fontColor=#FFFFFF;" vertex="1" parent="1">
          <mxGeometry x="750" y="685" width="60" height="30" as="geometry" />
        </mxCell>
        <mxCell id="8qDGK20phoXkKiL5pCjt-39" value="&lt;font face=&quot;Lucida Console&quot;&gt;&lt;span style=&quot;font-size: 12px;&quot;&gt;c files&lt;/span&gt;&lt;/font&gt;" style="rounded=1;whiteSpace=wrap;html=1;fillColor=#1ba1e2;fontColor=#ffffff;strokeColor=#006EAF;" vertex="1" parent="1">
          <mxGeometry x="750" y="710" width="120" height="60" as="geometry" />
        </mxCell>
        <mxCell id="8qDGK20phoXkKiL5pCjt-40" value="" style="endArrow=classic;html=1;rounded=0;exitX=0.5;exitY=1;exitDx=0;exitDy=0;" edge="1" parent="1" source="8qDGK20phoXkKiL5pCjt-19">
          <mxGeometry width="50" height="50" relative="1" as="geometry">
            <mxPoint x="630" y="650" as="sourcePoint" />
            <mxPoint x="680" y="740" as="targetPoint" />
          </mxGeometry>
        </mxCell>
        <mxCell id="8qDGK20phoXkKiL5pCjt-41" value="&lt;font face=&quot;Lucida Console&quot; color=&quot;#000000&quot;&gt;make install&lt;/font&gt;" style="text;html=1;align=center;verticalAlign=middle;whiteSpace=wrap;rounded=0;fontColor=#FFFFFF;" vertex="1" parent="1">
          <mxGeometry x="630" y="667.5" width="85" height="30" as="geometry" />
        </mxCell>
      </root>
    </mxGraphModel>
  </diagram>
</mxfile>
